<svg width="18" height="18" viewBox="0 0 18 18" fill="none" xmlns="http://www.w3.org/2000/svg">
<path fill-rule="evenodd" clip-rule="evenodd" d="M10.6673 14.9999C10.5772 15.0015 10.4902 14.9671 10.4254 14.9044L9.79407 14.2928C9.65937 14.1623 9.65584 13.9473 9.78619 13.8124L13.6897 9.77463L2.58945 9.77463C2.40198 9.77463 2.25 9.62252 2.25 9.43488L2.25 8.56512C2.25 8.37748 2.40198 8.22537 2.58945 8.22537L13.7432 8.22537L9.7878 4.18921C9.72448 4.1246 9.68954 4.03737 9.69072 3.94688C9.6919 3.85638 9.7291 3.77009 9.79408 3.70716L10.4254 3.09561C10.5596 2.96568 10.7734 2.96854 10.904 3.10201L16.4033 8.72169C16.5322 8.85373 16.5322 9.06471 16.4033 9.19675L16.1061 9.5009L10.9058 14.8961C10.8432 14.9611 10.7574 14.9984 10.6673 14.9999Z" fill="white"/>
</svg>
