<svg width="18" height="18" viewBox="0 0 18 18" fill="none" xmlns="http://www.w3.org/2000/svg">
<path fill-rule="evenodd" clip-rule="evenodd" d="M7.33267 3.00005C7.42278 2.9985 7.5098 3.03288 7.57456 3.09561L8.20593 3.70718C8.34064 3.83766 8.34416 4.05273 8.21381 4.18757L4.31032 8.22537H15.4106C15.598 8.22537 15.75 8.37748 15.75 8.56512V9.43488C15.75 9.62252 15.598 9.77463 15.4106 9.77463H4.25685L8.2122 13.8108C8.27552 13.8754 8.31046 13.9626 8.30928 14.0531C8.30811 14.1436 8.2709 14.2299 8.20592 14.2928L7.57456 14.9044C7.44042 15.0343 7.22663 15.0315 7.096 14.898L1.59675 9.27831C1.46775 9.14628 1.46775 8.93529 1.59674 8.80326L1.89387 8.4991L7.0942 3.10386C7.15677 3.03895 7.24257 3.0016 7.33267 3.00005Z" fill="white"/>
</svg>
