<svg width="24" height="24" viewBox="0 0 24 24" fill="none" xmlns="http://www.w3.org/2000/svg">
<path d="M18.3358 0C15.7859 0 13.7032 2.00487 13.5766 4.52555H0.690998C0.311436 4.52555 0 4.83698 0 5.21655C0 10.3455 3.95134 14.5596 9.0511 14.9197V22.6083H7.02676C6.63747 22.6083 6.33577 22.91 6.33577 23.309C6.33577 23.6886 6.65693 24 7.0365 24H12.4574C12.8467 24 13.1582 23.6886 13.1582 23.309C13.1582 22.9294 12.8467 22.6083 12.4672 22.6083H10.4428V14.9197C13.8881 14.6764 16.9343 12.6326 18.472 9.52798C21.0414 9.45985 23.1046 7.34793 23.1046 4.75912C23.1046 2.14112 20.9635 0 18.3358 0ZM9.74209 13.5669C6.42336 13.5669 3.47445 11.6399 2.12165 8.62287H17.3528C16.0097 11.6399 13.0608 13.5669 9.74209 13.5669ZM19.4842 5.21655C19.4842 4.86618 19.2214 4.57421 18.8808 4.53528L14.9684 4.51582C15.0949 2.76399 16.5547 1.382 18.3358 1.382C20.1946 1.382 21.7129 2.90024 21.7129 4.75912C21.7129 6.35523 20.5937 7.70803 19.056 8.03893C19.3382 7.11436 19.4842 6.17032 19.4842 5.21655ZM18.0535 5.91727C18.0146 6.36496 17.9465 6.81265 17.8394 7.24088H1.64477C1.53771 6.80292 1.46959 6.36496 1.43066 5.91727H18.0535Z" fill="#DFB57B"/>
</svg>
