<svg width="24" height="24" viewBox="0 0 24 24" fill="none" xmlns="http://www.w3.org/2000/svg">
<path d="M19.7782 4.22184C17.7006 2.14421 14.9382 1 12 1C9.0618 1 6.29947 2.14421 4.22184 4.22184C2.14421 6.29947 1 9.0618 1 12C1 14.9382 2.14421 17.7005 4.22184 19.7782C6.29947 21.8558 9.0618 23 12 23C14.9382 23 17.7006 21.8558 19.7782 19.7782C21.8558 17.7005 23 14.9382 23 12C23 9.0618 21.8558 6.29947 19.7782 4.22184ZM17.1554 5.72789L17.639 3.71902C19.5645 5.03438 21.0098 7.00295 21.6532 9.30315L21.3999 9.35188C21.0217 9.42463 20.7172 9.7132 20.6245 10.0872L20.5262 10.4832C20.5252 10.4877 20.5244 10.4906 20.5173 10.4932C20.5102 10.4957 20.5077 10.4939 20.504 10.4912L19.9171 10.051C19.6129 9.82286 19.1987 9.78939 18.8619 9.96577L18.1294 10.3492C17.7782 10.5331 17.5751 10.8933 17.5995 11.2891C17.6239 11.6849 17.8697 12.0173 18.241 12.1568L18.2758 12.1698C18.2798 12.1713 18.2827 12.1723 18.2845 12.1796C18.2863 12.1867 18.2843 12.1891 18.2814 12.1923L17.8252 12.717C17.8206 12.7223 17.8127 12.7235 17.8068 12.7196L16.577 11.9261C16.295 11.7442 15.9435 11.7167 15.6367 11.853C15.33 11.9892 15.1145 12.2682 15.0604 12.5994L14.9655 13.1791C14.9119 13.5064 15.0244 13.8371 15.2667 14.0637L15.908 14.6638C15.9131 14.6686 15.914 14.6762 15.9102 14.682L14.8649 16.2665C14.7655 16.4172 14.709 16.5924 14.7017 16.773L14.611 19.0415C14.6109 19.045 14.6094 19.0484 14.6068 19.051L13.2148 20.4153C13.2102 20.4199 13.2031 20.4207 13.1977 20.4175L12.2951 19.8888C12.2916 19.8867 12.2892 19.8834 12.2884 19.8796C12.2884 19.8796 11.8505 17.8925 11.8341 17.8485L11.436 16.7799C11.303 16.4229 10.9718 16.171 10.5924 16.138L8.77047 15.9796C8.76587 15.9792 8.76175 15.9766 8.75943 15.9725L7.72293 14.1854C7.7213 14.1826 7.72074 14.1793 7.72117 14.1762L7.98186 12.4429C7.98242 12.4392 7.98436 12.4359 7.98732 12.4337L9.57875 11.2329C9.58279 11.2299 9.58812 11.2293 9.5928 11.2312L11.1349 11.8745C11.2227 11.9111 11.3151 11.9348 11.4095 11.9451L13.5453 12.1772C13.7887 12.2037 14.0316 12.1397 14.2304 11.9973L15.6454 10.983C16.0266 10.7098 16.1645 10.2006 15.9733 9.77229L15.842 9.47847C15.6897 9.13747 15.3634 8.91295 14.9905 8.89259L11.0165 8.67499C11.0143 8.67486 11.0122 8.67422 11.0103 8.67314C11.0063 8.67087 11.0041 8.66902 11.0039 8.66902C11.002 8.66455 11.0034 8.65329 11.0057 8.65016C11.0063 8.64977 11.0088 8.64848 11.0137 8.64711L12.2067 8.32553C12.3645 8.28299 12.5107 8.20126 12.6294 8.0892L14.0885 6.71235C14.0907 6.71025 14.0936 6.70891 14.0967 6.70857L16.2926 6.48243C16.7104 6.43946 17.0571 6.13627 17.1554 5.72789ZM9.71741 4.92064L10.5383 3.37557C10.6596 3.14719 10.6978 2.8819 10.6458 2.6286L10.5344 2.08526C11.0129 2.01479 11.5022 1.9778 12 1.9778C12.502 1.9778 12.9954 2.01539 13.4779 2.08698C13.4779 2.08698 13.3603 2.21554 13.3399 2.22366L12.1773 2.69C12.0112 2.75669 11.8619 2.86381 11.7454 2.99985L9.93398 5.11709C9.90936 5.14588 9.87352 5.16329 9.83562 5.16492C9.77809 5.16745 9.74255 5.1357 9.72592 5.11722C9.66151 5.04555 9.71114 4.93259 9.71741 4.92064ZM5.444 4.42538V5.89229C5.444 6.302 5.23865 6.67939 4.89499 6.90232L3.84238 7.58535C3.59845 7.74373 3.39164 7.94564 3.22784 8.18571L2.27248 9.58563C2.77783 7.55007 3.90645 5.75802 5.444 4.42538ZM6.08299 18.8572L5.9445 19.9803C4.37734 18.7883 3.17035 17.1462 2.51839 15.2482H3.14083C3.2171 15.2482 3.28748 15.2868 3.32856 15.3508L4.58647 17.3108C4.64319 17.3988 4.71065 17.479 4.78791 17.5494L6.01162 18.6655C6.0649 18.7139 6.0918 18.7858 6.08299 18.8572ZM12 22.0222C10.1197 22.0222 8.359 21.5013 6.85376 20.5968L7.05344 18.9769C7.10088 18.5912 6.95762 18.2045 6.67063 17.9429C6.67063 17.9429 5.42007 16.7989 5.40928 16.7828L4.15137 14.8228C3.92939 14.4767 3.55148 14.2704 3.14083 14.2704H2.2372C2.06756 13.5406 1.97775 12.7806 1.97775 12C1.97775 11.9157 1.97887 11.8317 1.98093 11.7479L4.03548 8.73717C4.12593 8.60418 4.23984 8.49272 4.37477 8.40523L5.42686 7.72276C6.04969 7.31894 6.42175 6.63449 6.42175 5.89238V3.67764C7.37089 3.03938 8.43475 2.55946 9.57519 2.27501L9.68802 2.82505C9.69438 2.85621 9.6897 2.88882 9.67479 2.91684L8.854 4.46186C8.8027 4.55833 8.73622 4.81202 8.73622 4.81202C8.66958 5.14941 8.75973 5.49264 8.98359 5.75372C9.19706 6.00272 9.50291 6.14289 9.82879 6.14289C9.84464 6.14289 10.3173 6.16596 10.6769 5.75282L12.4883 3.6357C12.5026 3.61895 12.521 3.60575 12.5414 3.59759L13.7039 3.13129C13.8693 3.06499 14.018 2.95856 14.1341 2.82355L14.5729 2.3133C15.3454 2.51869 16.0817 2.81362 16.7694 3.18728C16.758 3.21323 16.2047 5.49917 16.2047 5.49917C16.2033 5.50497 16.1983 5.50931 16.1923 5.50991L13.9963 5.73606C13.7805 5.75832 13.5748 5.8525 13.4172 6.00135L11.9581 7.3782C11.9565 7.37974 11.9545 7.38095 11.9521 7.3815L10.759 7.70308C10.3698 7.80797 10.0849 8.13414 10.0334 8.53397C9.9818 8.93379 10.1746 9.3215 10.5245 9.52182C10.6579 9.59813 10.8096 9.64291 10.9629 9.65133L14.937 9.86892C14.9423 9.86922 14.947 9.87245 14.9491 9.8773L15.0803 10.171C15.0831 10.1771 15.0811 10.1844 15.0756 10.1884L13.6606 11.2026C13.6577 11.2047 13.6544 11.2056 13.6509 11.2052L11.5112 10.9721L9.9693 10.3289C9.64536 10.1936 9.27015 10.2411 8.98991 10.4524L7.39843 11.6532C7.19004 11.8105 7.05387 12.0393 7.01507 12.2975L6.75433 14.0308C6.72099 14.2527 6.76464 14.4818 6.87718 14.6759L7.91371 16.4631C8.07562 16.7423 8.36429 16.9257 8.68586 16.9537L10.5079 17.1122C10.5132 17.1127 10.518 17.1162 10.5199 17.1214L10.9185 18.1919L11.3333 20.0886C11.3923 20.3582 11.5627 20.5929 11.8009 20.7325L12.7035 21.2613C12.8591 21.3524 13.032 21.3968 13.2039 21.3968C13.4576 21.3968 13.7092 21.3 13.8993 21.1138L15.2912 19.7494C15.4726 19.5717 15.578 19.3342 15.5881 19.0806L15.6788 16.8123C15.6789 16.8097 15.6797 16.8071 15.6812 16.805L16.7265 15.2206C16.9934 14.8157 16.9302 14.2814 16.5761 13.9501L15.9347 13.3499C15.9313 13.3467 15.9297 13.342 15.9304 13.3373L16.0254 12.7575C16.0261 12.7528 16.0265 12.75 16.0336 12.7468C16.0404 12.7437 16.0429 12.7453 16.047 12.7479L17.2766 13.5413C17.6884 13.807 18.2413 13.7286 18.563 13.3588L19.0192 12.8341C19.2324 12.589 19.3121 12.2547 19.2324 11.9398C19.1526 11.6249 18.9236 11.3687 18.6193 11.2545L18.5846 11.2415C18.5801 11.2398 18.5779 11.2384 18.5778 11.2384C18.5751 11.2347 18.5745 11.2236 18.5763 11.22C18.5768 11.2196 18.5788 11.2178 18.583 11.2156L19.3154 10.8322C19.3203 10.8296 19.3261 10.8301 19.3305 10.8334L19.9174 11.2735C20.1842 11.4736 20.5311 11.5263 20.8453 11.4144C21.1594 11.3025 21.3949 11.0425 21.4753 10.7188L21.5735 10.3227C21.5748 10.3174 21.5792 10.3132 21.5846 10.3122L21.8702 10.2573C21.97 10.8235 22.0224 11.4058 22.0224 12.0001C22.0222 17.5263 17.5263 22.0222 12 22.0222Z" fill="#DFB57B"/>
<path fill-rule="evenodd" clip-rule="evenodd" d="M12 22C17.5228 22 22 17.5228 22 12C22 6.47715 17.5228 2 12 2C6.47715 2 2 6.47715 2 12C2 17.5228 6.47715 22 12 22ZM12 24C18.6274 24 24 18.6274 24 12C24 5.37258 18.6274 0 12 0C5.37258 0 0 5.37258 0 12C0 18.6274 5.37258 24 12 24Z" fill="#DFB57B"/>
</svg>
