<svg width="16" height="16" viewBox="0 0 16 16" fill="none" xmlns="http://www.w3.org/2000/svg">
<path d="M0.552686 9.36266H1.85595V14.5757C1.85595 14.8829 2.10729 15.1342 2.41448 15.1342H6.23115C6.53834 15.1342 6.78969 14.8829 6.78969 14.5757V10.759H9.11691V14.5757C9.11691 14.8829 9.36825 15.1342 9.67544 15.1342H13.3059C13.6131 15.1342 13.8645 14.8829 13.8645 14.5757V9.36266H15.447C15.6704 9.36266 15.8752 9.22303 15.959 9.01824C16.0427 8.81346 15.9962 8.57141 15.838 8.41315L8.55837 1.03119C8.34425 0.817071 7.99054 0.807773 7.77642 1.02189L0.171042 8.40385C0.0034812 8.56212 -0.0430744 8.80413 0.0407059 9.01824C0.124486 9.23233 0.329272 9.36266 0.552686 9.36266ZM8.14877 2.21341L14.1065 8.24559H13.3059C12.9987 8.24559 12.7474 8.49693 12.7474 8.80413V14.0171H10.2339V10.2005C10.2339 9.89327 9.9826 9.64193 9.67541 9.64193H6.23115C5.92396 9.64193 5.67262 9.89327 5.67262 10.2005V14.0171H2.97302V8.80413C2.97302 8.49693 2.72168 8.24559 2.41448 8.24559H1.93043L8.14877 2.21341Z" fill="white"/>
</svg>
