<svg width="24" height="24" viewBox="0 0 24 24" fill="none" xmlns="http://www.w3.org/2000/svg">
<path fill-rule="evenodd" clip-rule="evenodd" d="M2.86791 2C2.40963 2 2 2.38054 2 2.92077V12.8732H15.1037V2H2.86791ZM2 19V14.3985H15.1035V20H2.86791C2.41897 20 2 19.6099 2 19.0792V19ZM2.86791 22C2.56425 22 2.27287 21.9521 2 21.8638V24H0V19.0792V19V2.92077C0 1.32895 1.25281 0 2.86791 0H21.1321C22.7472 0 24 1.32894 24 2.92077V19V19.0792V24H22V21.865C21.7276 21.9526 21.4364 22 21.1321 22H2.86791ZM22 19.0792V19V16.665H16.6288V20H21.1321C21.5872 20 22 19.6132 22 19.0792ZM22 11.7507V15.1399H16.6288V11.7507H22ZM22 6.83674V10.2257H16.6288V6.83674H22ZM22 2.92077V5.31168H16.6288V2H21.1321C21.5904 2 22 2.38054 22 2.92077ZM11.8999 5.40582H13.3883V8.68247H11.8999V5.40582ZM9.67493 15.0596H7.69043V16.0596H9.67493V15.0596ZM7.69043 17.6848H9.67493V18.6848H7.69043V17.6848Z" fill="#DFB57B"/>
</svg>
