 <svg width="100" height="33" viewBox="0 0 100 33" fill="none" xmlns="http://www.w3.org/2000/svg">
     <g clip-path="url(#clip0)">
         <path d="M83.8352 30.4148L86.1271 32.022L100 12.2077L97.7082 10.6063" fill="#E4C291" />
         <path
             d="M53.7567 6.79431C53.7567 9.43429 52.0799 10.8906 49.0396 10.8906L39.5995 10.8906L39.5995 2.73281L49.0396 2.73281C52.1263 2.73281 53.7567 4.13693 53.7567 6.79431ZM48.97 -3.38583e-07L36.6984 -8.74989e-07L36.6984 24.0209L39.5995 24.0209L39.5995 13.6234L48.97 13.6234C53.8205 13.6234 56.7158 11.0589 56.7158 6.7595C56.7158 2.46591 53.896 -1.23259e-07 48.97 -3.38583e-07Z"
             fill="white" />
         <path
             d="M79.6692 -1.22498e-07L79.6692 18.8744L64.7113 0.139251L64.6011 -7.81149e-07L61.3983 -9.21147e-07L61.3983 24.0209L64.2297 24.0209L64.2297 3.96287L80.3423 24.0499L80.4525 24.1891L82.4717 24.1891L82.4717 0"
             fill="white" />
         <path
             d="M16.008 2.89526C23.2375 2.89526 29.1208 8.77864 29.1208 16.0081C29.1208 23.2376 23.2375 29.121 16.008 29.121C8.77852 29.121 2.89514 23.2376 2.89514 16.0081C2.89514 8.77864 8.77852 2.89526 16.008 2.89526ZM16.008 -8.32913e-06C7.16552 -8.71565e-06 -0.000137642 7.16564 -0.000138029 16.0081C-0.000138415 24.8506 7.16552 32.0162 16.008 32.0162C24.8505 32.0162 32.0161 24.8506 32.0161 16.0081C32.0161 7.16564 24.8505 -7.94262e-06 16.008 -8.32913e-06Z"
             fill="white" />
     </g>
     <defs>
         <clipPath id="clip0">
             <path d="M100 0L100 32.022L-1.39973e-06 32.022L0 -4.37114e-06L100 0Z" fill="white" />
         </clipPath>
     </defs>
 </svg>