<svg width="24" height="24" viewBox="0 0 24 24" fill="none" xmlns="http://www.w3.org/2000/svg">
<g clip-path="url(#clip0)">
<path d="M20.5717 0C20.0983 0 19.7145 0.383755 19.7145 0.857159V3.98827C15.3016 -0.284062 8.26089 -0.170056 3.98856 4.2428C1.97511 6.3225 0.851868 9.10531 0.857443 12C0.857443 12.4734 1.2412 12.8571 1.7146 12.8571C2.18801 12.8571 2.57171 12.4734 2.57171 12C2.57276 6.79274 6.79488 2.57223 12.0022 2.57329C14.6468 2.57379 17.1695 3.68497 18.9552 5.63569L15.158 6.90167C14.7083 7.05128 14.465 7.53709 14.6146 7.98679C14.7642 8.43649 15.25 8.67982 15.6997 8.53021L20.8426 6.81594C21.1937 6.69902 21.4301 6.36996 21.4289 5.99996V0.857109C21.4289 0.383755 21.0451 0 20.5717 0Z" fill="#DFB57B"/>
<path d="M22.2859 11.1429C21.8125 11.1429 21.4287 11.5267 21.4287 12.0001C21.4277 17.2073 17.2056 21.4278 11.9983 21.4268C9.35368 21.4263 6.83091 20.3151 5.04528 18.3644L8.8424 17.0984C9.2921 16.9488 9.53543 16.463 9.38582 16.0133C9.2362 15.5636 8.75039 15.3202 8.3007 15.4699L3.15784 17.1841C2.80678 17.301 2.57038 17.6301 2.57154 18.0001V23.1429C2.57154 23.6163 2.95529 24.0001 3.4287 24.0001C3.9021 24.0001 4.28586 23.6163 4.28586 23.1429V20.0118C8.69877 24.2841 15.7396 24.1702 20.0118 19.7573C22.0253 17.6776 23.1485 14.8948 23.143 12.0001C23.1431 11.5267 22.7593 11.1429 22.2859 11.1429Z" fill="#DFB57B"/>
</g>
<defs>
<clipPath id="clip0">
<path d="M0 0H24V24H0V0Z" fill="white"/>
</clipPath>
</defs>
</svg>
