<svg width="16" height="16" viewBox="0 0 16 16" fill="none" xmlns="http://www.w3.org/2000/svg">
<path fill-rule="evenodd" clip-rule="evenodd" d="M7.32252 1.33334C5.72549 1.33334 4.21854 1.9554 3.08489 3.08856C0.749373 5.42306 0.749373 9.22563 3.08489 11.5601C4.21843 12.6932 5.71953 13.3154 7.32252 13.3154C8.65835 13.3154 9.92617 12.882 10.9684 12.0805L13.3257 14.4367C13.4829 14.5939 13.6862 14.6667 13.8847 14.6667C14.0801 14.6667 14.2867 14.5957 14.4411 14.4337C14.7428 14.1287 14.7418 13.6285 14.438 13.3249L12.0808 10.9687C12.8826 9.92686 13.3161 8.6596 13.3161 7.32435C13.3161 5.72801 12.6938 4.22172 11.5601 3.08856C10.4266 1.95551 8.92551 1.33334 7.32252 1.33334ZM7.33325 12C9.91058 12 11.9999 9.91066 11.9999 7.33334C11.9999 4.75601 9.91058 2.66667 7.33325 2.66667C4.75592 2.66667 2.66659 4.75601 2.66659 7.33334C2.66659 9.91066 4.75592 12 7.33325 12Z" fill="white"/>
</svg>
