<svg width="24" height="24" viewBox="0 0 24 24" fill="none" xmlns="http://www.w3.org/2000/svg">
<g clip-path="url(#clip0)">
<path fill-rule="evenodd" clip-rule="evenodd" d="M12.7259 0.224656C12.3718 -0.0766049 11.865 -0.0725264 11.5153 0.222744L11.494 0.24075L11.474 0.26021C10.4389 1.26688 9.33753 2.00476 8.10169 2.52786C6.86322 3.0521 5.50304 3.35456 3.92926 3.44241C2.89255 3.50019 2.06815 4.35391 2.05259 5.39416C2.04871 5.66395 2.04144 5.93368 2.02928 6.20323C1.95193 9.49055 1.94541 12.8959 3.09809 16.0236C4.50119 19.8309 7.37776 22.4135 11.7456 23.9366L11.7501 23.9381C11.7996 23.9551 11.8489 23.9681 11.8964 23.9777L11.8988 23.9782C12.0442 24.0071 12.1931 24.0073 12.3384 23.9786L12.3404 23.9782C12.3951 23.9673 12.4441 23.9533 12.4859 23.9392L12.494 23.9364C16.8574 22.4104 19.7317 19.8264 21.1356 16.0199C22.3104 12.8346 22.2536 9.43692 22.1977 6.09223L22.1976 6.09141C22.1937 5.8587 22.1899 5.62624 22.1864 5.39413C22.1712 4.35349 21.3466 3.50013 20.3098 3.4424C18.7358 3.35455 17.3758 3.05211 16.1373 2.52787C14.9016 2.00476 13.8003 1.26687 12.7649 0.260162L12.746 0.24176L12.7259 0.224656ZM15.5186 3.98946C14.2765 3.46366 13.1581 2.75091 12.1195 1.82709C11.0811 2.75092 9.96258 3.46368 8.72035 3.98948C7.29137 4.59437 5.7484 4.9305 4.01771 5.0271C3.80878 5.03874 3.64273 5.21435 3.63958 5.41743C3.63526 5.71773 3.62743 5.9931 3.61562 6.25735L3.6155 6.2621C3.55785 9.28892 3.505 12.538 4.58733 15.4748C5.78201 18.7165 8.20049 20.9838 12.1193 22.3853C16.0335 20.9814 18.4507 18.7127 19.6465 15.4707C20.7308 12.5306 20.6808 9.28268 20.6235 6.2558C20.6117 5.99348 20.6039 5.71832 20.5994 5.41737C20.5964 5.21417 20.4304 5.03874 20.2215 5.0271C18.4906 4.93051 16.9476 4.59436 15.5186 3.98946ZM12.1184 5.67124C8.62869 5.67124 5.78974 8.51038 5.78974 11.9999C5.78974 15.4897 8.62869 18.3288 12.1184 18.3288C15.608 18.3288 18.4471 15.4897 18.4471 11.9999C18.4471 8.51038 15.608 5.67124 12.1184 5.67124ZM12.1184 16.8385C9.45037 16.8385 7.27984 14.668 7.27984 11.9999C7.27984 9.33186 9.45037 7.16133 12.1184 7.16133C14.7863 7.16133 16.9568 9.33186 16.9568 11.9999C16.9568 14.668 14.7863 16.8385 12.1184 16.8385ZM10.9981 12.9746L13.9376 10.0351C14.2286 9.74395 14.7003 9.74395 14.9913 10.0351C15.2822 10.326 15.2822 10.7977 14.9913 11.0887L11.5249 14.5552C11.3794 14.7007 11.1887 14.7734 10.9981 14.7734C10.8074 14.7734 10.6168 14.7007 10.4713 14.5552L9.14644 13.2304C8.85563 12.9396 8.85563 12.4678 9.14644 12.1768C9.43744 11.8858 9.90921 11.8858 10.2002 12.1768L10.9981 12.9746Z" fill="#DFB57B"/>
</g>
<defs>
<clipPath id="clip0">
<path d="M0 0H24V24H0V0Z" fill="white"/>
</clipPath>
</defs>
</svg>
