<svg width="34" height="34" viewBox="0 0 34 34" fill="none" xmlns="http://www.w3.org/2000/svg">
<path d="M11.3751 5.94584C11.1511 5.94584 10.9407 6.0524 10.8082 6.23301C10.6756 6.4135 10.6373 6.6463 10.7044 6.85993L13.2919 15.089C12.5863 15.4204 12.0782 16.1416 12.0784 16.9999C12.0784 17.8573 12.586 18.5793 13.2919 18.9108L10.7042 27.1399C10.6372 27.3536 10.6758 27.5864 10.8082 27.7667C10.9407 27.9473 11.1512 28.054 11.3751 28.0539L22.6256 28.0539C22.8134 28.0539 22.9919 27.9789 23.1228 27.848C23.3081 27.6628 23.3749 27.3898 23.2963 27.1398L20.7088 18.9108C21.4144 18.5793 21.9225 17.8582 21.9223 16.9999C21.9225 16.1426 21.4147 15.4204 20.7088 15.0889L23.2963 6.85992C23.3635 6.64642 23.3248 6.41349 23.1925 6.23301C23.06 6.05239 22.8494 5.94583 22.6256 5.94583L11.3751 5.94584ZM14.7037 14.8903L13.2176 10.1648L20.7828 10.1648L19.2968 14.8905L14.7037 14.8903ZM20.7829 23.8351L13.2177 23.8351L14.7037 19.1094L19.297 19.1094L20.7829 23.8351ZM21.6674 26.6477L12.3333 26.6477L12.7756 25.2413L21.2251 25.2413L21.6674 26.6477ZM20.5161 17C20.5161 17.3874 20.2012 17.7023 19.8141 17.703C19.8118 17.703 19.8094 17.703 19.8072 17.7032L14.1928 17.703C14.1909 17.7032 14.1889 17.703 14.1869 17.703C13.7988 17.7027 13.4846 17.3887 13.4846 17C13.4846 16.6124 13.7995 16.2975 14.1866 16.297C14.1888 16.2968 14.1911 16.2968 14.1935 16.2968L19.8129 16.2968C20.2016 16.2968 20.516 16.6112 20.5161 17ZM21.2251 8.75841L12.7756 8.75842L12.3333 7.35206L21.6673 7.35219L21.2251 8.75841Z" fill="#DFB57B"/>
</svg>
