<svg width="14" height="16" viewBox="0 0 14 16" fill="none" xmlns="http://www.w3.org/2000/svg">
<path fill-rule="evenodd" clip-rule="evenodd" d="M10.0721 3.08092H12.7944C13.0921 3.08092 13.3333 3.31506 13.3333 3.60396V14.4309C13.3333 15.3641 12.7391 16 11.7166 16H1.61671C0.725202 16 0 15.2962 0 14.4309V3.60396C0 3.31506 0.241243 3.08092 0.538902 3.08092H3.26132C3.46016 1.34862 4.91142 -1.48682e-07 6.66667 0C8.42545 1.48982e-07 9.87403 1.34583 10.0721 3.08092ZM10.0952 4.127V4.65088C10.4109 4.65088 10.6667 4.91113 10.6667 5.23224C10.6667 5.55335 10.4109 5.8136 10.0952 5.8136H8.95238C8.63675 5.8136 8.38095 5.55335 8.38095 5.23224C8.38095 4.91113 8.63675 4.65088 8.95238 4.65088V4.127H4.38095V4.65088C4.69658 4.65088 4.95238 4.91113 4.95238 5.23224C4.95238 5.55335 4.69658 5.8136 4.38095 5.8136H3.23809C2.92247 5.8136 2.66667 5.55335 2.66667 5.23224C2.66667 4.91113 2.92247 4.65088 3.23809 4.65088V4.127H1.0778V12.1818H12.2555V4.127H10.0952ZM8.91746 3.08092C8.72823 1.9907 7.79261 1.16272 6.66667 1.16272C5.54292 1.16272 4.60587 1.99221 4.41604 3.08092H8.91746ZM1.0778 14.4309V13.2279H12.2555V14.4309C12.2555 14.7194 12.0139 14.954 11.7166 14.954H1.61671C1.31947 14.954 1.0778 14.7194 1.0778 14.4309Z" fill="white"/>
</svg>
