<svg width="14" height="14" viewBox="0 0 14 14" fill="none" xmlns="http://www.w3.org/2000/svg">
<path d="M5.37309 8.11544C5.62508 8.04873 5.81778 7.82639 5.84001 7.55957C5.86225 7.29276 5.72884 7.04077 5.48426 6.92218C4.51335 6.44043 3.91302 5.48435 3.91302 4.41709C3.91302 2.86808 5.17298 1.60812 6.72199 1.60812C8.27099 1.60812 9.53095 2.86808 9.53095 4.41709C9.53095 5.48435 8.92321 6.44043 7.9523 6.92218C7.71513 7.04077 7.57431 7.29276 7.59655 7.55957C7.61878 7.82639 7.80407 8.04132 8.06347 8.11544C10.072 8.66389 11.5247 10.376 11.7841 12.3919H1.6525C1.9045 10.3685 3.36457 8.65648 5.37309 8.11544ZM2.63082 4.41709C2.63082 5.53623 3.08293 6.57384 3.86114 7.32982C1.73403 8.38966 0.333252 10.5909 0.333252 13.0293C0.333252 13.385 0.622301 13.6667 0.970643 13.6667H12.4733C12.8291 13.6667 13.1107 13.3776 13.1107 13.0293C13.1107 10.5909 11.7099 8.38966 9.57542 7.32982C10.3536 6.57384 10.8057 5.53623 10.8057 4.41709C10.8131 2.16398 8.97509 0.333336 6.72199 0.333336C4.46888 0.333336 2.63082 2.16398 2.63082 4.41709Z" fill="white"/>
</svg>
